<svg width="667" height="329" viewBox="0 0 667 329" fill="none" xmlns="http://www.w3.org/2000/svg">
<path d="M103.558 272.331C132.596 282.841 163.284 288.061 194.164 287.745C224.956 288.082 255.558 282.89 284.515 272.417L303.079 261.431L284.515 231.116C284.515 231.116 232.229 196.117 226.098 195.606C219.966 195.095 86.782 223.452 82.7797 225.155C78.7774 226.858 103.558 272.331 103.558 272.331Z" fill="#756D78"/>
<path d="M45.0555 241.164C42.9266 262.964 40.8829 284.679 38.8391 306.479C38.6693 308.175 38.8624 309.887 39.4057 311.503C39.9489 313.118 40.8298 314.599 41.9897 315.848C43.1497 317.096 44.5622 318.084 46.1332 318.744C47.7043 319.405 49.3979 319.723 51.1016 319.678H72.3055C75.9235 319.479 79.3755 318.095 82.1299 315.741C84.8842 313.387 86.7882 310.192 87.5485 306.649C91.1659 290.622 99.2678 275.955 110.908 264.359C122.549 252.764 137.248 244.719 153.289 241.164L122.548 225.751L45.0555 241.164ZM343.102 241.164V242.782L349.148 306.649C349.316 308.323 349.129 310.014 348.601 311.611C348.073 313.208 347.215 314.677 346.083 315.921C344.951 317.166 343.57 318.158 342.029 318.835C340.489 319.512 338.824 319.857 337.141 319.849H315.938C312.32 319.649 308.868 318.266 306.113 315.911C303.359 313.557 301.455 310.362 300.695 306.82C297.09 290.814 289.013 276.162 277.405 264.569C265.797 252.976 251.134 244.918 235.124 241.334L291.838 222.941L343.102 241.164Z" fill="#F1CCC6"/>
<path d="M291.838 222.77L281.705 226.006L323.602 240.994V242.612L329.648 306.479C329.815 308.153 329.628 309.844 329.1 311.441C328.572 313.038 327.714 314.507 326.582 315.751C325.45 316.996 324.069 317.988 322.529 318.665C320.988 319.341 319.323 319.687 317.641 319.678H336.971C338.668 319.711 340.352 319.383 341.913 318.717C343.473 318.052 344.875 317.062 346.026 315.815C347.177 314.568 348.05 313.091 348.588 311.482C349.126 309.873 349.317 308.168 349.148 306.479L343.102 242.612V240.994L291.838 222.77ZM122.122 225.751L108.241 228.476L133.788 241.164C117.763 244.734 103.082 252.785 91.4576 264.379C79.8331 275.973 71.7438 290.633 68.1329 306.649C67.3726 310.192 65.4686 313.387 62.7142 315.741C59.9599 318.095 56.5078 319.479 52.8899 319.678H72.2204C75.8383 319.479 79.2903 318.095 82.0447 315.741C84.7991 313.387 86.703 310.192 87.4633 306.649C91.0872 290.611 99.2018 275.936 110.859 264.34C122.515 252.743 137.232 244.705 153.289 241.164L122.122 225.751Z" fill="#EBAFA5"/>
<path d="M323.602 121.69C329.759 115.112 337.455 110.169 345.997 107.306C354.54 104.442 363.66 103.748 372.538 105.286C381.415 106.823 389.771 110.544 396.853 116.114C403.934 121.684 409.52 128.928 413.106 137.193C416.692 145.458 418.166 154.485 417.396 163.462C416.626 172.439 413.636 181.083 408.694 188.616C403.753 196.15 397.015 202.336 389.088 206.619C381.161 210.901 372.294 213.145 363.284 213.148L333.395 221.663L312.872 192.795L323.602 121.69Z" fill="#F1CCC6"/>
<path d="M362.944 104.233C359.138 104.242 355.343 104.641 351.618 105.425C365.011 107.932 376.972 115.38 385.132 126.292C393.291 137.204 397.052 150.784 395.67 164.339C394.288 177.894 387.863 190.435 377.669 199.475C367.475 208.515 354.256 213.396 340.633 213.148L329.733 216.213L333.565 221.663L363.37 213.148C370.504 213.148 377.569 211.743 384.161 209.012C390.752 206.282 396.741 202.28 401.786 197.235C406.831 192.19 410.833 186.201 413.564 179.609C416.294 173.018 417.699 165.953 417.699 158.818C417.699 151.683 416.294 144.619 413.564 138.027C410.833 131.435 406.831 125.446 401.786 120.401C396.741 115.356 390.752 111.354 384.161 108.624C377.569 105.894 370.504 104.488 363.37 104.488L362.944 104.233Z" fill="#EBAFA5"/>
<path d="M344.465 200.8C344.465 158.702 327.741 118.328 297.974 88.5602C268.206 58.7923 227.832 42.0689 185.734 42.0689C143.635 42.0689 103.262 58.7923 73.4937 88.5602C43.7258 118.328 27.0024 158.702 27.0024 200.8L165.041 219.79L344.465 200.8Z" fill="#AADDB4"/>
<path d="M39.7758 200.885H28.6204C23.5054 201.218 18.7087 203.485 15.2038 207.225C11.699 210.965 9.7486 215.899 9.7486 221.025C9.7486 226.151 11.699 231.084 15.2038 234.825C18.7087 238.565 23.5054 240.831 28.6204 241.164H342.847C347.962 240.831 352.759 238.565 356.263 234.825C359.768 231.084 361.719 226.151 361.719 221.025C361.719 215.899 359.768 210.965 356.263 207.225C352.759 203.485 347.962 201.218 342.847 200.885H39.7758Z" fill="#655E66"/>
<path d="M344.465 200.8C344.476 179.952 340.378 159.306 332.405 140.043C324.432 120.78 312.74 103.277 297.999 88.5352C283.257 73.7934 265.754 62.1018 246.491 54.1288C227.227 46.1558 206.582 42.0577 185.734 42.0689C180.187 42.0509 174.644 42.3352 169.128 42.9205C208.139 47.0241 244.249 65.4274 270.494 94.5811C296.739 123.735 311.259 161.574 311.254 200.8H344.465Z" fill="#92D39D"/>
<path d="M342.847 240.994C347.962 240.661 352.759 238.395 356.263 234.654C359.768 230.914 361.719 225.98 361.719 220.854C361.719 215.729 359.768 210.795 356.263 207.055C352.759 203.314 347.962 201.048 342.847 200.715H300.269C305.384 201.048 310.181 203.314 313.685 207.055C317.19 210.795 319.141 215.729 319.141 220.854C319.141 225.98 317.19 230.914 313.685 234.654C310.181 238.395 305.384 240.661 300.269 240.994H342.847Z" fill="#544F56"/>
<circle cx="382.414" cy="150.358" r="5.5" fill="black"/>
<g filter="url(#filter0_i_3_8)">
<path fill-rule="evenodd" clip-rule="evenodd" d="M460.011 84.0938C460.011 37.6481 505.979 0 563.147 0C620.315 0 666.283 38.7438 666.283 84.8215C666.283 130.899 620.315 168.551 563.147 168.551C549.91 168.551 537.26 166.429 525.588 162.79C513.459 171.078 494.21 181.489 469.35 181.489C465.461 181.489 461.999 179.144 460.785 175.283C459.27 171.745 459.977 167.601 462.655 164.771C462.857 164.622 475.39 151.126 481.402 135.156C468.06 120.986 460.011 103.346 460.011 84.0938ZM531.466 144.245C541.671 147.477 552.332 149.145 563.147 149.145C609.56 149.145 646.537 120.137 646.537 84.4576C646.537 48.7784 608.841 19.7701 562.807 19.7701C516.774 19.7701 479.077 48.7784 479.077 84.4576C479.077 101.519 487.871 114.416 495.136 122.211L503.473 131.053L499.179 142.373C496.955 148.235 494.127 153.746 491.146 158.646C500.695 155.565 508.628 151.013 514.389 146.921L522.268 141.364L531.466 144.245Z" fill="black"/>
</g>
<path d="M362.944 95.7173C349.323 95.8092 336.094 100.288 325.22 108.491C305.815 78.8664 277.495 56.178 244.351 43.7034C211.207 31.2288 174.956 29.6139 140.834 39.0922C106.712 48.5705 76.4867 68.6511 54.5251 96.4328C32.5634 124.215 20.0025 158.259 18.6571 193.647C12.3781 195.977 7.11564 200.436 3.78616 206.248C0.456687 212.059 -0.728759 218.854 0.436308 225.449C1.60137 232.044 5.04312 238.022 10.1621 242.341C15.281 246.659 21.7527 249.046 28.45 249.084H35.518L30.1532 305.117C29.798 308.052 30.0786 311.029 30.9758 313.846C31.873 316.663 33.3659 319.254 35.353 321.443C37.3402 323.632 39.7751 325.368 42.4924 326.533C45.2098 327.698 48.1459 328.264 51.1016 328.194H72.3055C77.8011 327.96 83.0642 325.911 87.2708 322.367C91.4774 318.823 94.3902 313.984 95.5532 308.608C97.781 299.246 101.675 290.362 107.049 282.38C135.139 291.716 164.564 296.405 194.164 296.26C223.673 296.395 253.008 291.736 281.023 282.465C286.339 290.438 290.202 299.289 292.434 308.608C293.609 314.025 296.559 318.895 300.817 322.443C305.076 325.992 310.397 328.016 315.938 328.194H337.141C340.012 328.206 342.853 327.613 345.48 326.454C348.106 325.295 350.459 323.596 352.384 321.467C354.297 319.342 355.752 316.848 356.66 314.138C357.568 311.428 357.91 308.56 357.664 305.713L352.129 247.806C357.744 245.881 362.622 242.256 366.085 237.434C369.549 232.613 371.427 226.833 371.459 220.897C387.308 218.866 401.783 210.858 411.925 198.51C422.066 186.162 427.109 170.407 426.021 154.465C424.934 138.524 417.799 123.599 406.074 112.743C394.35 101.887 378.922 95.9183 362.944 96.058V95.7173ZM194.249 192.285V128.673L249.601 107.384L286.388 155.327L266.462 191.859L194.249 192.285ZM176.537 192.285H105.091L85.1641 155.327L121.952 107.043L177.303 128.332V191.944L176.537 192.285ZM40.3719 163.842H69.9211L85.675 192.795H35.9438C36.4561 183.021 37.9394 173.323 40.3719 163.842V163.842ZM301.546 163.842H331.095C333.486 173.273 334.969 182.912 335.523 192.625H285.792L301.546 163.842ZM325.645 146.811H300.695L261.012 94.6955V71.022C290.531 88.2201 313.324 114.947 325.645 146.811V146.811ZM243.981 62.7619V91.715L187.352 113.174H184.627L127.742 91.2892V62.3361C146.182 54.5792 165.985 50.5836 185.989 50.5836C205.994 50.5836 225.797 54.5792 244.236 62.3361L243.981 62.7619ZM110.711 71.022V94.2697L70.7727 146.811H45.8219C58.2088 114.907 81.0959 88.1755 110.711 71.022V71.022ZM79.2032 304.691C78.89 306.362 78.0527 307.891 76.8125 309.054C75.5722 310.218 73.9936 310.957 72.3055 311.163H51.1016C50.6098 311.165 50.1226 311.068 49.669 310.878C49.2155 310.688 48.8049 310.408 48.4618 310.056C48.1252 309.691 47.8681 309.261 47.7068 308.792C47.5456 308.322 47.4837 307.825 47.525 307.331L53.0602 249.68H115.48C97.0848 263.028 84.1154 282.558 78.9477 304.691H79.2032ZM119.227 268.329C129.416 259.365 141.585 252.945 154.737 249.595H233.336C246.603 252.932 258.871 259.416 269.102 268.499C220.105 282.976 167.968 282.976 118.971 268.499L119.227 268.329ZM340.037 310.056C339.694 310.408 339.283 310.688 338.83 310.878C338.376 311.068 337.889 311.165 337.397 311.163H315.938C314.261 310.902 312.701 310.147 311.457 308.994C310.213 307.841 309.342 306.342 308.955 304.691C303.846 282.509 290.905 262.915 272.508 249.51H335.013L340.633 307.331C340.686 307.819 340.637 308.313 340.491 308.782C340.344 309.251 340.103 309.684 339.781 310.056H340.037ZM343.102 232.478H28.8758C25.9648 232.229 23.2532 230.896 21.2774 228.744C19.3015 226.592 18.2052 223.776 18.2052 220.854C18.2052 217.933 19.3015 215.117 21.2774 212.965C23.2532 210.813 25.9648 209.48 28.8758 209.231H343.102C346.013 209.48 348.725 210.813 350.701 212.965C352.677 215.117 353.773 217.933 353.773 220.854C353.773 223.776 352.677 226.592 350.701 228.744C348.725 230.896 346.013 232.229 343.102 232.478V232.478ZM366.18 204.292C362.845 199.59 358.149 196.023 352.725 194.073C351.994 169.478 345.613 145.382 334.076 123.649C339.616 119.041 346.168 115.81 353.197 114.221C360.226 112.632 367.531 112.73 374.514 114.506C381.498 116.282 387.962 119.687 393.377 124.441C398.792 129.195 403.004 135.164 405.669 141.859C408.335 148.554 409.377 155.785 408.711 162.96C408.045 170.135 405.69 177.05 401.837 183.14C397.985 189.23 392.746 194.322 386.549 197.998C380.351 201.674 373.371 203.831 366.18 204.292V204.292Z" fill="black"/>
<g filter="url(#filter1_b_3_8)">
<path d="M529.922 75H526.828V63.6094H515.219V75H512.125V51.7344H515.219V60.8594H526.828V51.7344H529.922V75ZM550.562 66.5781H537.703C537.703 67.651 537.865 68.5885 538.188 69.3906C538.51 70.1823 538.953 70.8333 539.516 71.3438C540.057 71.8438 540.698 72.2188 541.438 72.4688C542.188 72.7188 543.01 72.8438 543.906 72.8438C545.094 72.8438 546.286 72.6094 547.484 72.1406C548.693 71.6615 549.552 71.1927 550.062 70.7344H550.219V73.9375C549.229 74.3542 548.219 74.7031 547.188 74.9844C546.156 75.2656 545.073 75.4062 543.938 75.4062C541.042 75.4062 538.781 74.625 537.156 73.0625C535.531 71.4896 534.719 69.2604 534.719 66.375C534.719 63.5208 535.495 61.2552 537.047 59.5781C538.609 57.901 540.661 57.0625 543.203 57.0625C545.557 57.0625 547.37 57.75 548.641 59.125C549.922 60.5 550.562 62.4531 550.562 64.9844V66.5781ZM547.703 64.3281C547.693 62.7865 547.302 61.5938 546.531 60.75C545.771 59.9062 544.609 59.4844 543.047 59.4844C541.474 59.4844 540.219 59.9479 539.281 60.875C538.354 61.8021 537.828 62.9531 537.703 64.3281H547.703ZM557.984 75H555.047V50.6875H557.984V75ZM566.766 75H563.828V50.6875H566.766V75ZM587.453 66.2812C587.453 69.125 586.724 71.3698 585.266 73.0156C583.807 74.6615 581.854 75.4844 579.406 75.4844C576.938 75.4844 574.974 74.6615 573.516 73.0156C572.068 71.3698 571.344 69.125 571.344 66.2812C571.344 63.4375 572.068 61.1927 573.516 59.5469C574.974 57.8906 576.938 57.0625 579.406 57.0625C581.854 57.0625 583.807 57.8906 585.266 59.5469C586.724 61.1927 587.453 63.4375 587.453 66.2812ZM584.422 66.2812C584.422 64.0208 583.979 62.3438 583.094 61.25C582.208 60.1458 580.979 59.5938 579.406 59.5938C577.812 59.5938 576.573 60.1458 575.688 61.25C574.812 62.3438 574.375 64.0208 574.375 66.2812C574.375 68.4688 574.818 70.1302 575.703 71.2656C576.589 72.3906 577.823 72.9531 579.406 72.9531C580.969 72.9531 582.193 72.3958 583.078 71.2812C583.974 70.1562 584.422 68.4896 584.422 66.2812ZM597.641 70.5469L593.234 80.7812H590.953L593.672 70.5469H597.641ZM539.203 81.7344L533.156 105H529.672L524.781 85.6875L520 105H516.594L510.438 81.7344H513.609L518.5 101.078L523.312 81.7344H526.453L531.312 101.266L536.172 81.7344H539.203ZM556.859 96.2812C556.859 99.125 556.13 101.37 554.672 103.016C553.214 104.661 551.26 105.484 548.812 105.484C546.344 105.484 544.38 104.661 542.922 103.016C541.474 101.37 540.75 99.125 540.75 96.2812C540.75 93.4375 541.474 91.1927 542.922 89.5469C544.38 87.8906 546.344 87.0625 548.812 87.0625C551.26 87.0625 553.214 87.8906 554.672 89.5469C556.13 91.1927 556.859 93.4375 556.859 96.2812ZM553.828 96.2812C553.828 94.0208 553.385 92.3438 552.5 91.25C551.615 90.1458 550.385 89.5938 548.812 89.5938C547.219 89.5938 545.979 90.1458 545.094 91.25C544.219 92.3438 543.781 94.0208 543.781 96.2812C543.781 98.4688 544.224 100.13 545.109 101.266C545.995 102.391 547.229 102.953 548.812 102.953C550.375 102.953 551.599 102.396 552.484 101.281C553.38 100.156 553.828 98.4896 553.828 96.2812ZM572.312 90.75H572.156C571.719 90.6458 571.292 90.5729 570.875 90.5312C570.469 90.4792 569.984 90.4531 569.422 90.4531C568.516 90.4531 567.641 90.6562 566.797 91.0625C565.953 91.4583 565.141 91.974 564.359 92.6094V105H561.422V87.5469H564.359V90.125C565.526 89.1875 566.552 88.526 567.438 88.1406C568.333 87.7448 569.245 87.5469 570.172 87.5469C570.682 87.5469 571.052 87.5625 571.281 87.5938C571.51 87.6146 571.854 87.6615 572.312 87.7344V90.75ZM578.047 105H575.109V80.6875H578.047V105ZM598.016 105H595.078V103.172C594.234 103.901 593.354 104.469 592.438 104.875C591.521 105.281 590.526 105.484 589.453 105.484C587.37 105.484 585.714 104.682 584.484 103.078C583.266 101.474 582.656 99.25 582.656 96.4062C582.656 94.9271 582.865 93.6094 583.281 92.4531C583.708 91.2969 584.281 90.3125 585 89.5C585.708 88.7083 586.531 88.1042 587.469 87.6875C588.417 87.2708 589.396 87.0625 590.406 87.0625C591.323 87.0625 592.135 87.1615 592.844 87.3594C593.552 87.5469 594.297 87.8438 595.078 88.25V80.6875H598.016V105ZM595.078 100.703V90.6875C594.286 90.3333 593.578 90.0885 592.953 89.9531C592.328 89.8177 591.646 89.75 590.906 89.75C589.26 89.75 587.979 90.3229 587.062 91.4688C586.146 92.6146 585.688 94.2396 585.688 96.3438C585.688 98.4167 586.042 99.9948 586.75 101.078C587.458 102.151 588.594 102.688 590.156 102.688C590.99 102.688 591.833 102.505 592.688 102.141C593.542 101.766 594.339 101.286 595.078 100.703ZM608.953 81.7344L608.547 98.5938H605.891L605.453 81.7344H608.953ZM608.797 105H605.609V101.703H608.797V105Z" fill="black"/>
</g>
<defs>
<filter id="filter0_i_3_8" x="460" y="0" width="206.283" height="185.489" filterUnits="userSpaceOnUse" color-interpolation-filters="sRGB">
<feFlood flood-opacity="0" result="BackgroundImageFix"/>
<feBlend mode="normal" in="SourceGraphic" in2="BackgroundImageFix" result="shape"/>
<feColorMatrix in="SourceAlpha" type="matrix" values="0 0 0 0 0 0 0 0 0 0 0 0 0 0 0 0 0 0 127 0" result="hardAlpha"/>
<feOffset dy="4"/>
<feGaussianBlur stdDeviation="2"/>
<feComposite in2="hardAlpha" operator="arithmetic" k2="-1" k3="1"/>
<feColorMatrix type="matrix" values="0 0 0 0 0 0 0 0 0 0 0 0 0 0 0 0 0 0 0.25 0"/>
<feBlend mode="normal" in2="shape" result="effect1_innerShadow_3_8"/>
</filter>
<filter id="filter1_b_3_8" x="506.438" y="46.6875" width="106.516" height="62.7969" filterUnits="userSpaceOnUse" color-interpolation-filters="sRGB">
<feFlood flood-opacity="0" result="BackgroundImageFix"/>
<feGaussianBlur in="BackgroundImage" stdDeviation="2"/>
<feComposite in2="SourceAlpha" operator="in" result="effect1_backgroundBlur_3_8"/>
<feBlend mode="normal" in="SourceGraphic" in2="effect1_backgroundBlur_3_8" result="shape"/>
</filter>
</defs>
</svg>
